<?xml version="1.0" encoding="UTF-8" standalone="no"?>
<svg
   width="100%"
   height="100%"
   viewBox="0 0 2048 2048"
   version="1.1"
   xmlns="http://www.w3.org/2000/svg">
  
  <defs>
    <!-- Gradiente do 9 (Azul) -->
    <linearGradient id="blueGradient" x1="815.72" x2="735.18" y1="1584.37" y2="589.67" gradientUnits="userSpaceOnUse">
      <stop offset="0%" stop-color="#1E65A0" />
      <stop offset="100%" stop-color="#68DCE3" />
    </linearGradient>
    
    <!-- Gradiente do 7 (Ciano) -->
    <linearGradient id="cyanGradient" x1="1285.96" x2="1417.14" y1="1610.87" y2="366.04" gradientUnits="userSpaceOnUse">
      <stop offset="0%" stop-color="#327FAD" />
      <stop offset="100%" stop-color="#6BEEF4" />
    </linearGradient>
    
    <!-- Gradiente da Cruz (Vermelha) -->
    <linearGradient id="redGradient" x1="1122.4" x2="1004.34" y1="1048.42" y2="508.16" gradientUnits="userSpaceOnUse">
      <stop offset="0%" stop-color="#A6012B" />
      <stop offset="100%" stop-color="#FF4954" />
    </linearGradient>

    <!-- Efeito de Sombra (Drop Shadow) igual à imagem original -->
    <filter id="dropShadow" x="-10%" y="-10%" width="130%" height="130%">
      <feDropShadow dx="0" dy="25" stdDeviation="30" flood-color="#000000" flood-opacity="0.15"/>
    </filter>
  </defs>

  <!-- Fundo Transparente (Removido o rect branco original para melhor integração em temas dark/light) -->
  <!-- Grupo Principal com as 3 formas da Logo + Aplicação da Sombra -->
  <g filter="url(#dropShadow)">
    
    <!-- Forma Azul: 9 -->
    <path fill="url(#blueGradient)" d="m 408.105,627.076 c -4.501,-134.855 116.745,-266.97 249.451,-281.902 34.792,-3.914 76.566,-2.188 112.071,-2.199 l 156.94,0.012 c -32.146,38.67 -31.389,59.761 -31.093,107.629 0.176,28.364 1.898,63.79 -0.244,91.666 l -0.083,1.007 0.097,13.026 -148.722,-0.092 c -33.501,3.452 -55.054,13.172 -77.475,39.725 -5.527,6.546 -11.809,22.135 -14.096,24.739 -8.312,28.074 -7.313,51.247 -6.907,80.029 0.488,34.543 -3.573,69.378 14.375,100.599 17.203,31.013 47.855,47.425 82.408,50.348 l 101.716,-0.222 c 14.482,-0.027 35.812,-0.808 49.676,0.032 l 0.078,1.116 c 2.036,32.016 -0.928,66.574 0.35,98.826 0.859,21.701 -1.917,44.53 3.713,65.705 a 104.9,104.9 0 0 0 31.18,50.78 c 35.214,31.41 65.392,26.32 108.85,26.08 44.39,-0.25 78.93,6.71 115.6,-24.09 l -0.1,12.02 c 0.93,51.03 1.26,102.06 1,153.09 -0.02,18.36 0.61,63.98 -2.03,80.69 -0.79,41.2 -25.18,103.63 -47.49,137.61 a 264,264 0 0 1 -36.35,43.3 c -48.97,47.26 -122.392,78.96 -189.875,84.75 -32.804,2.06 -66.466,1.62 -99.359,1.49 -43.167,-1.07 -83.684,1.69 -127.073,0.04 -74.443,-2.82 -132.406,-31.77 -184.509,-85.16 -52.12,-53.41 -79.553,-123.87 -3.896,-171.95 27.327,-17.37 66.084,-44.1 99.276,-44.99 44.373,1.53 68.169,35.43 90.88,68.1 4.287,6.16 14.226,12.6 20.415,17.46 22.589,9.74 36.584,11.19 61.335,9.7 35.045,-2.12 79.823,3.92 113.493,-3.45 2.929,-1.5 8.285,-3.16 11.75,-4.73 a 118,118 0 0 0 32.345,-22.15 c 40.908,-39.39 29.355,-78.97 31.15,-129.76 0.918,-41.17 1.909,-78.42 -29.218,-109.91 -32.237,-32.62 -66.212,-28.15 -107.534,-28.1 L 686.101,1078 c -72.381,-0.6 -153.887,-34.97 -204.5,-86.919 A 262.75,262.75 0 0 1 409.353,835.228 c -2.452,-25.6 -1.402,-61.413 -1.447,-88.021 -0.066,-39.787 -0.306,-80.38 0.199,-120.131 Z" />
    
    <!-- Forma Ciano: 7 -->
    <path fill="url(#cyanGradient)" d="m 1160.03,342.427 c 82.98,1.759 170.47,0.491 253.78,0.439 l 69.38,-0.13 c 13.09,-0.024 30.46,-0.444 43.26,0.755 41.98,3.935 82.84,28.97 109.28,61.249 17.88,19.548 31.78,49.49 37.02,75.331 3.8,18.749 3.31,41.67 3.33,60.953 l 0.03,61.143 c 0.01,45.533 0.71,91.407 -0.19,136.905 -0.86,43.8 -20.97,85.504 -37.62,125.158 l -46.52,108.755 -102.46,238.845 q -43.26,100.455 -87.72,200.4 c -15.32,34.77 -30.6,71.28 -47.34,105.11 -15.85,32.02 -54.48,55.67 -88.39,62.77 -13.75,2.95 -30.78,2.3 -44.86,2.3 l -54.13,-0.05 -181.978,0.14 c 48.108,-23.74 100.488,-52.52 133.818,-95.78 27.24,-35.36 44.53,-79.19 62.72,-119.75 16.33,-35.66 32.32,-71.47 47.97,-107.44 a 36193,36193 0 0 0 179.41,-418.086 c 9.34,-22.195 27.99,-39.88 34.88,-63.64 7.05,-24.332 5.56,-52.95 5.27,-78.398 -0.35,-30.579 3.51,-59.957 -10.62,-88.142 -14.33,-28.6 -41.64,-49.417 -73.89,-53.711 -24.61,-2.36 -53.35,-1.598 -78.56,-1.537 -30.72,0.205 -61.43,0.195 -92.14,-0.03 -0.66,-27.92 -1.39,-66.347 -0.4,-94.385 -0.98,-49.684 7.29,-80.875 -33.33,-119.174 Z" />
    
    <!-- Forma Vermelha: Cruz -->
    <path fill="url(#redGradient)" d="m 941.499,384.15 c 6.895,-12.756 19.722,-24.581 33.84,-28.762 11.26,-3.335 115.041,-3.39 130.781,-1.248 6.3,0.857 11.96,2.883 17.5,6.027 10.18,5.782 21.97,16.483 25.91,27.795 7.29,14.414 7.26,34.808 6.55,50.789 -2.25,50.475 3.08,106.482 -0.51,156.392 32.33,-0.143 64.67,-0.104 97.01,0.116 l 67.53,-0.356 c 21.97,-0.086 43.25,-2.786 62.79,8.927 8.91,6.334 15.36,11.998 20.57,21.959 14.5,24.239 7.74,64.432 9.19,92.651 0.88,16.96 1.15,44.626 -6.35,59.633 -1.65,4.183 -1.86,4.488 -4.56,8.065 -2.91,4.242 -3.98,5.851 -7.62,9.416 -6.27,6.24 -13.87,12.92 -23.03,14.164 -16.1,5.187 -40.68,3.217 -58.35,2.824 l -156.74,0.033 -0.16,13.998 c 0.35,39.278 0.48,78.558 0.4,117.838 0.03,15.645 1.32,51.029 -1.4,64.619 a 55.94,55.94 0 0 1 -14.9,28 c -14.37,14.8 -30.94,18.9 -50.91,19.02 l -61.03,-0.03 c -12.55,0.02 -28.769,0.56 -41.067,-0.41 -20.263,-2.79 -35.654,-12.06 -45.195,-30.66 -10.548,-17.44 -7.848,-43.828 -7.777,-63.774 l 0.358,-74.446 c 0.02,-13.946 0.902,-62.101 -0.679,-72.67 -2.344,-1.823 -6.523,-1.673 -9.716,-1.91 -36.983,0.786 -86.198,1.276 -122.75,0.009 -0.467,0.045 -1.968,0.281 -2.632,0.253 -33.443,-1.54 -67.335,8.8 -94.105,-17.204 -27.993,-27.191 -15.77,-65.454 -18.557,-100.164 -0.781,-9.729 0.427,-20.939 -0.132,-30.62 -1.137,-19.695 4.158,-37.678 18.443,-51.655 17.338,-17.384 34.089,-18.196 57.266,-17.751 13.923,0.266 28.86,0.114 42.939,0.138 l 130.121,-0.16 c -0.968,-6.203 -0.591,-23.51 -0.591,-30.688 l 0.028,-58.033 -0.069,-65.705 c -0.016,-21.132 -2.645,-37.236 7.604,-56.42 Z" />
  </g>

  <!-- Texto Limpo e Simétrico (Substituindo os traçados distorcidos) -->
  <text x="1035" y="1775" font-family="'Montserrat', 'Helvetica Neue', 'Arial', sans-serif" font-size="140" font-weight="700" fill="#205c8b" text-anchor="middle" letter-spacing="42">PLANTÕES</text>

</svg>